<svg width="64" height="64" viewBox="0 0 64 64" fill="none" xmlns="http://www.w3.org/2000/svg">
  <defs>
    <linearGradient id="g" x1="0" y1="0" x2="64" y2="64">
      <stop offset="0" stop-color="#00747f" />
      <stop offset="1" stop-color="#8a5a2b" />
    </linearGradient>
  </defs>
  <rect width="64" height="64" rx="18" fill="url(#g)" />
  <rect x="6" y="27" width="9" height="3.5" rx="1.75" fill="white" opacity="0.75" />
  <rect x="6" y="34" width="6" height="3.5" rx="1.75" fill="white" opacity="0.5" />
  <path d="M22 34 L27 27 Q28 25.5 30 25.5 L37 25.5 Q39 25.5 40 27.5 L43 34 Z" fill="white" />
  <rect x="14" y="33" width="37" height="10" rx="5" fill="white" />
  <path d="M29.5 33 L31.8 28.5 L36.2 28.5 L38 33 Z" fill="#00747f" />
  <circle cx="25" cy="44" r="5" fill="#04161a" />
  <circle cx="43" cy="44" r="5" fill="#04161a" />
  <circle cx="25" cy="44" r="1.9" fill="white" />
  <circle cx="43" cy="44" r="1.9" fill="white" />
</svg>
